<?xml version="1.0" encoding="UTF-8"?>
<svg version="1.1" xmlns="http://www.w3.org/2000/svg" width="256" height="256">
<path d="M0 0 C1.8616488 -0.00322395 3.72329737 -0.00658881 5.58494568 -0.01008606 C9.47208237 -0.01603988 13.35919697 -0.01792992 17.24633789 -0.01733398 C22.16861902 -0.01723276 27.09075463 -0.03086107 32.01300144 -0.04810619 C35.85603963 -0.05935873 39.69904414 -0.06124916 43.54209709 -0.06072426 C45.35373369 -0.06188546 47.16537172 -0.06619914 48.97699165 -0.07405663 C97.22652637 -0.26370308 97.22652637 -0.26370308 114.37109375 14.54296875 C131.22646367 34.20756699 130.77886587 58.80570226 130.7890625 83.546875 C130.79228645 85.4085238 130.79565131 87.27017237 130.79914856 89.13182068 C130.80510238 93.01895737 130.80699242 96.90607197 130.80639648 100.79321289 C130.80629526 105.71549402 130.81992357 110.63762963 130.83716869 115.55987644 C130.84842123 119.40291463 130.85031166 123.24591914 130.84978676 127.08897209 C130.85094796 128.90060869 130.85526164 130.71224672 130.86311913 132.52386665 C131.05276558 180.77340137 131.05276558 180.77340137 116.24609375 197.91796875 C96.4360311 214.89802245 71.50460405 214.325367 46.6171875 214.3359375 C44.80420406 214.33916287 42.99122086 214.34252783 41.17823792 214.34602356 C37.39543049 214.351972 33.61264575 214.35386798 29.82983398 214.35327148 C25.04556177 214.35317027 20.26143932 214.36679944 15.47720242 214.38404369 C11.73535021 214.39530959 7.99353252 214.39718626 4.25166512 214.39666176 C2.49109445 214.39782095 0.73052225 214.40212245 -1.0300312 214.40999413 C-10.6076358 214.44880282 -20.07285291 214.15418324 -29.61303711 213.26293945 C-30.89708734 213.14343194 -30.89708734 213.14343194 -32.20707798 213.02151012 C-47.47480797 211.46200986 -60.63834772 207.37675758 -70.8671875 195.4296875 C-85.03827662 177.88285507 -83.53807746 152.13548841 -83.546875 130.7890625 C-83.55009895 128.9274137 -83.55346381 127.06576513 -83.55696106 125.20411682 C-83.56291488 121.31698013 -83.56480492 117.42986553 -83.56420898 113.54272461 C-83.56410776 108.62044348 -83.57773607 103.69830787 -83.59498119 98.77606106 C-83.60623373 94.93302287 -83.60812416 91.09001836 -83.60759926 87.24696541 C-83.60876046 85.43532881 -83.61307414 83.62369078 -83.62093163 81.81207085 C-83.81057808 33.56253613 -83.81057808 33.56253613 -69.00390625 16.41796875 C-49.33930801 -0.43740117 -24.74117274 0.01019663 0 0 Z " fill="#8C93A5" transform="translate(104.37890625,20.83203125)"/>
<path d="M0 0 C2.98913632 2.54076587 3.87882531 4.05079828 4.375 7.9375 C3.97640041 11.19272999 3.05321982 13.89827844 2 17 C1.48713836 18.81565953 0.99161233 20.63628719 0.51171875 22.4609375 C0.22401611 23.54858398 -0.06368652 24.63623047 -0.36010742 25.75683594 C-0.67439697 26.95083008 -0.98868652 28.14482422 -1.3125 29.375 C-2.02256101 32.05492413 -2.73330339 34.73465627 -3.4453125 37.4140625 C-3.63979477 38.14616943 -3.83427704 38.87827637 -4.03465271 39.63256836 C-6.60406526 49.29044166 -9.21700779 58.93658223 -11.8296814 68.58282471 C-12.39426662 70.6673451 -12.95858453 72.75193792 -13.52261353 74.83660889 C-14.84715323 79.7318333 -16.17559501 84.62590239 -17.51318359 89.51757812 C-18.49063791 93.09839357 -19.43993484 96.68479388 -20.36572266 100.27929688 C-20.6906646 101.51428925 -20.6906646 101.51428925 -21.02217102 102.77423096 C-21.42214063 104.29503137 -21.8128991 105.81830055 -22.19206238 107.34442139 C-23.35757503 111.71852527 -24.84952286 114.73401963 -28 118 C-30.77295022 118.92070613 -33.17822558 118.69823048 -36 118 C-38.5625 116.0625 -38.5625 116.0625 -40 113 C-40.11175598 106.2946411 -37.95392642 100.14201305 -36.01000977 93.78417969 C-34.27005862 88.06817072 -32.86207348 82.32565163 -31.54910278 76.4990387 C-30.44969297 71.71104388 -29.15494998 67.00785848 -27.72265625 62.30859375 C-25.75699152 55.74098643 -23.95421667 49.14299572 -22.24609375 42.50390625 C-21.9002977 41.16233963 -21.9002977 41.16233963 -21.54751587 39.79367065 C-20.60248486 36.11862312 -19.66109897 32.4426857 -18.72680664 28.76489258 C-13.03033884 6.38493147 -13.03033884 6.38493147 -10 1 C-6.78447181 -0.60776409 -3.47794 -0.60485913 0 0 Z " fill="#1E284B" transform="translate(146,69)"/>
<path d="M0 0 C2.9375 2.0625 2.9375 2.0625 5 5 C5.50145394 9.2623585 4.79755269 10.94069544 2.2265625 14.35546875 C-2.27499785 19.44933967 -7.14057722 24.2005872 -12.0546875 28.89453125 C-15.24907722 32.3519129 -16.8480966 35.08857959 -17.625 39.75 C-17.17294005 48.7409702 -7.48522508 55.69286019 -1.44458008 61.57104492 C1.00077115 63.95277725 3.09904657 66.14856986 5 69 C4.92433357 73.16165352 4.59563245 75.29925594 1.875 78.5 C-1.09743167 80.05083391 -2.72729276 80.33607617 -6.01123047 79.76708984 C-10.35443424 78.09186934 -13.35683529 74.37497931 -16.5 71.0625 C-17.62547241 69.9036731 -17.62547241 69.9036731 -18.77368164 68.72143555 C-28.3394876 58.7241997 -34.59817343 50.57289649 -34.3046875 36.17578125 C-33.86886004 31.63311807 -32.61333329 28.69599993 -30 25 C-29.48695312 24.26910156 -28.97390625 23.53820312 -28.4453125 22.78515625 C-10.31948822 -1.21405744 -10.31948822 -1.21405744 0 0 Z " fill="#20294D" transform="translate(94,88)"/>
<path d="M0 0 C2.99852659 1.9858663 5.45018297 4.47646974 8 7 C8.89460938 7.845625 9.78921875 8.69125 10.7109375 9.5625 C27.15577785 25.42163371 27.15577785 25.42163371 28.3359375 36.015625 C28.51573973 50.90324992 21.61074316 59.19747352 11.59375 69.5546875 C1.56157347 79.75708857 1.56157347 79.75708857 -2.8125 80.4375 C-6 80 -6 80 -8.9375 77.375 C-11 74 -11 74 -11.25 71.125 C-8.58524937 64.46312342 -2.83867188 59.82682022 2.1875 54.875 C8.73576763 48.54819425 8.73576763 48.54819425 11.625 40.125 C11.13541433 31.23487904 1.02531818 23.69462947 -4.87304688 17.82421875 C-10.99186389 11.51628576 -10.99186389 11.51628576 -11 6 C-9.19265667 0.57797001 -5.43677723 -0.92322632 0 0 Z " fill="#1E294B" transform="translate(168,88)"/>
<path d="M0 0 C0.66 0.66 1.32 1.32 2 2 C1.071875 3.1446875 1.071875 3.1446875 0.125 4.3125 C-2.05597052 6.99625809 -2.05597052 6.99625809 -4 10 C-5.32 9.67 -6.64 9.34 -8 9 C-5.36 6.03 -2.72 3.06 0 0 Z " fill="#253051" transform="translate(178,134)"/>
</svg>
